<svg
                          xmlns="http://www.w3.org/2000/svg"
                          viewBox="0 0 200 130"
                          className="w-5 h-6"
                        >
                          <rect width="247" height="130" fill="#fff" />
                          <g fill="#B22234">
                            <rect y="0" width="247" height="10" />
                            <rect y="20" width="247" height="10" />
                            <rect y="40" width="247" height="10" />
                            <rect y="60" width="247" height="10" />
                            <rect y="80" width="247" height="10" />
                            <rect y="100" width="247" height="10" />
                            <rect y="120" width="247" height="10" />
                          </g>

                          <rect width="98.8" height="70" fill="#3C3B6E" />

                          <g fill="#fff" transform="scale(0.9)">
                            <defs>
                              <g id="star">
                                <polygon
                                  points="0,-3 0.588,-0.95 2.85,-0.95 1.13,0.36 1.71,2.9 0,1.5 -1.71,2.9 -1.13,0.36 -2.85,-0.95 -0.588,-0.95"
                                  transform="scale(1.2)"
                                />
                              </g>
                            </defs>

                            <g transform="translate(5,5)">
                              <g>
                                <use href="#star" x="8" y="6" />
                                <use href="#star" x="24" y="6" />
                                <use href="#star" x="40" y="6" />
                                <use href="#star" x="56" y="6" />
                                <use href="#star" x="72" y="6" />
                                <use href="#star" x="88" y="6" />
                              </g>

                              <g transform="translate(0,8)">
                                <use href="#star" x="16" y="6" />
                                <use href="#star" x="32" y="6" />
                                <use href="#star" x="48" y="6" />
                                <use href="#star" x="64" y="6" />
                                <use href="#star" x="80" y="6" />
                              </g>

                              <g transform="translate(0,16)">
                                <use href="#star" x="8" y="6" />
                                <use href="#star" x="24" y="6" />
                                <use href="#star" x="40" y="6" />
                                <use href="#star" x="56" y="6" />
                                <use href="#star" x="72" y="6" />
                                <use href="#star" x="88" y="6" />
                              </g>

                              <g transform="translate(0,24)">
                                <use href="#star" x="16" y="6" />
                                <use href="#star" x="32" y="6" />
                                <use href="#star" x="48" y="6" />
                                <use href="#star" x="64" y="6" />
                                <use href="#star" x="80" y="6" />
                              </g>

                              <g transform="translate(0,32)">
                                <use href="#star" x="8" y="6" />
                                <use href="#star" x="24" y="6" />
                                <use href="#star" x="40" y="6" />
                                <use href="#star" x="56" y="6" />
                                <use href="#star" x="72" y="6" />
                                <use href="#star" x="88" y="6" />
                              </g>
                            </g>
                          </g>
                        </svg>